<?xml version="1.0" encoding="UTF-8" standalone="no"?>
<!-- Created with Inkscape (http://www.inkscape.org/) -->

<svg
   xmlns:dc="http://purl.org/dc/elements/1.1/"
   xmlns:cc="http://creativecommons.org/ns#"
   xmlns:rdf="http://www.w3.org/1999/02/22-rdf-syntax-ns#"
   xmlns:svg="http://www.w3.org/2000/svg"
   xmlns="http://www.w3.org/2000/svg"
   xmlns:sodipodi="http://sodipodi.sourceforge.net/DTD/sodipodi-0.dtd"
   xmlns:inkscape="http://www.inkscape.org/namespaces/inkscape"
   width="256"
   height="128"
   viewBox="0 0 256 128"
   id="svg2"
   version="1.1"
   inkscape:version="0.91 r13725"
   sodipodi:docname="banner.svg"
   inkscape:export-filename="C:\Users\adm\Desktop\Homebrew3DS\Custom Stuff\Custom 3DS Badges\APPS\Simple Badge Injector\meta\banner.png"
   inkscape:export-xdpi="90"
   inkscape:export-ydpi="90">
  <defs
     id="defs4" />
  <sodipodi:namedview
     id="base"
     pagecolor="#ffffff"
     bordercolor="#666666"
     borderopacity="1.0"
     inkscape:pageopacity="0.0"
     inkscape:pageshadow="2"
     inkscape:zoom="4"
     inkscape:cx="106.76112"
     inkscape:cy="54.219433"
     inkscape:document-units="px"
     inkscape:current-layer="layer1"
     showgrid="true"
     units="px"
     inkscape:object-paths="true"
     inkscape:snap-intersection-paths="true"
     inkscape:object-nodes="true"
     inkscape:snap-smooth-nodes="true"
     inkscape:snap-midpoints="true"
     inkscape:window-width="1680"
     inkscape:window-height="987"
     inkscape:window-x="-8"
     inkscape:window-y="-8"
     inkscape:window-maximized="1">
    <inkscape:grid
       type="xygrid"
       id="grid5080"
       spacingy="16"
       spacingx="16"
       empspacing="1"
       enabled="false" />
  </sodipodi:namedview>
  <metadata
     id="metadata7">
    <rdf:RDF>
      <cc:Work
         rdf:about="">
        <dc:format>image/svg+xml</dc:format>
        <dc:type
           rdf:resource="http://purl.org/dc/dcmitype/StillImage" />
        <dc:title />
      </cc:Work>
    </rdf:RDF>
  </metadata>
  <g
     inkscape:label="Layer 1"
     inkscape:groupmode="layer"
     id="layer1"
     transform="translate(0,-924.36216)">
    <rect
       style="opacity:1;fill:#7cecbe;fill-opacity:1;fill-rule:evenodd;stroke:none;stroke-width:5;stroke-linecap:round;stroke-linejoin:round;stroke-miterlimit:4;stroke-dasharray:none;stroke-dashoffset:0;stroke-opacity:0.78431373"
       id="rect5078"
       width="256"
       height="128"
       x="0"
       y="924.36218"
       ry="10" />
    <path
       inkscape:connector-curvature="0"
       id="path4150"
       d="m 246,924.36216 c 5.54,0 10,4.46 10,10 l 0,6 -112,112.00004 -32,0 128,-128.00004 6,0 z m -38,0 -128,128.00004 -32,0 128,-128.00004 32,0 z m -64,0 -128,128.00004 -6,0 c -5.54,0 -10,-4.46 -10,-10 l 0,-6 112,-112.00004 32,0 z m -64,0 -80,80.00004 0,-32.00004 48,-48 32,0 z m -64,0 -16,16 0,-6 c 0,-5.54 4.46,-10 10,-10 l 6,0 z m 240,48 0,32.00004 -48,48 -32,0 80,-80.00004 z m 0,64.00004 0,6 c 0,5.54 -4.46,10 -10,10 l -6,0 16,-16 z"
       style="opacity:1;fill:#ffffff;fill-opacity:0.19607843;fill-rule:evenodd;stroke:none;stroke-width:5;stroke-linecap:round;stroke-linejoin:round;stroke-miterlimit:4;stroke-dasharray:none;stroke-dashoffset:0;stroke-opacity:0.78431373" />
    <path
       style="fill:#1dc2d4;fill-opacity:0.39215687"
       d="m 109.25,938.36216 0,0.78125 0,1.5625 0,1.5625 c 0,0.52083 -0.0652,0.97656 -0.19531,1.36719 -0.13016,0.39062 -0.39063,0.65103 -0.78125,0.78125 -0.39063,0.13015 -0.84635,0.19531 -1.36719,0.19531 l -1.5625,0 c -0.52083,0 -0.97656,0.0652 -1.36719,0.19531 -0.39062,0.13016 -0.65103,0.39063 -0.78125,0.78125 C 103.06515,945.97935 103,946.43507 103,946.95591 l 0,1.5625 0,0.78125 0,0.39062 0,0.39063 0,0.19531 0,0.58594 0.78125,0 1.5625,0 1.5625,0 1.5625,0 1.5625,0 1.5625,0 1.5625,0 1.5625,0 1.5625,0 1.5625,0 1.5625,0 0.78125,0 0.78125,0 0.78125,0 0.78125,0 1.5625,0 1.5625,0 1.5625,0 1.5625,0 1.5625,0 1.5625,0 1.5625,0 0.78125,0 0.78125,0 0.78125,0 0.78125,0 1.5625,0 0.78125,0 0.78125,0 0.78125,0 0.78125,0 1.5625,0 1.5625,0 1.5625,0 0.78125,0 0.78125,0 1.5625,0 1.5625,0 1.5625,0 1.5625,0 1.5625,0 1.5625,0 c 0.52085,0 0.97656,-0.0652 1.36719,-0.19531 0.39062,-0.13016 0.65105,-0.39063 0.78125,-0.78125 0.13016,-0.39063 0.19531,-0.84636 0.19531,-1.36719 l 0,-1.5625 c 0,-0.52084 -0.0651,-0.97656 -0.19531,-1.36719 -0.13016,-0.39062 -0.39063,-0.65105 -0.78125,-0.78125 -0.39063,-0.13015 -0.84634,-0.19531 -1.36719,-0.19531 l -1.5625,0 -1.5625,0 -1.5625,0 -1.5625,0 -1.5625,0 -1.5625,0 -1.5625,0 -1.5625,0 -1.5625,0 c -0.52083,0 -0.97656,-0.0652 -1.36719,-0.19531 -0.39062,-0.13016 -0.65103,-0.39063 -0.78125,-0.78125 -0.13015,-0.39063 -0.19531,-0.84636 -0.19531,-1.36719 l 0,-1.5625 0,-1.5625 0,-0.78125 -0.78125,0 -0.78125,0 -0.78125,0 -0.78125,0 -0.78125,0 -0.78125,0 -0.78125,0 -0.78125,0 -0.78125,0 -0.78125,0 -0.78125,0 -0.78125,0 -0.78125,0 -0.78125,0 -0.78125,0 -0.78125,0 -0.78125,0 -0.78125,0 -0.78125,0 -0.78125,0 -0.78125,0 -0.78125,0 -0.78125,0 -0.78125,0 -0.78125,0 -0.78125,0 -0.78125,0 -0.78125,0 -0.78125,0 -0.78125,0 -0.78125,0 -0.78125,0 -0.78125,0 -0.78125,0 -0.78125,0 -0.78125,0 -0.78125,0 -0.78125,0 -0.78125,0 -0.78125,0 z m 6.25,43.75 0,0.78125 0,0.78125 0,0.78125 0,1.5625 0,1.5625 0,1.5625 0,1.5625 0,1.5625 0,1.5625 0,1.5625 0,1.5625 0,1.5625 0,0.78125 -0.19531,0.58594 c -0.13016,0.3906 -0.39063,0.651 -0.78125,0.7813 l -0.58594,0.1953 -0.78125,0 -1.5625,0 -0.78125,0 -0.58594,0.1953 c -0.39062,0.1301 -0.65103,0.3906 -0.78125,0.7812 l -0.19531,0.586 0,0.7812 0,1.5625 0,0.7813 0,0.7812 0,0.7813 0,0.7812 0,1.5625 0,1.5625 c 0,0.5208 -0.0652,0.9766 -0.19531,1.3672 -0.13016,0.3906 -0.39063,0.651 -0.78125,0.7813 -0.39063,0.1301 -0.84635,0.1953 -1.36719,0.1953 l -1.5625,0 c -0.52083,0 -0.97656,0.065 -1.36719,0.1953 -0.39062,0.1301 -0.65103,0.3906 -0.78125,0.7812 -0.13016,0.3907 -0.19531,0.8464 -0.19531,1.3672 l 0,1.5625 0,1.5625 0,0.7813 0,0.7812 0,1.5625 0,1.5625 0,0.7813 0,0.3906 0,0.3906 c 0,0.2604 -0.0652,0.4557 -0.19531,0.586 l 0.8789,0.098 c 0.58594,0.065 1.13933,0.098 1.66016,0.098 l 1.5625,0 1.5625,0 1.5625,0 1.5625,0 1.5625,0 c 0.52084,0 1.07422,0.033 1.66016,0.098 l 0.8789,0.098 c 0.13016,-0.1302 0.32553,-0.1953 0.58594,-0.1953 l 0.39062,0 1.17188,0 1.5625,0 c 0.52084,0 0.97656,-0.065 1.36719,-0.1953 0.39062,-0.1302 0.65104,-0.3907 0.78125,-0.7813 0.13015,-0.3906 0.19531,-0.8464 0.19531,-1.3672 l 0,-1.5625 c 0,-0.5208 0.0652,-0.9765 0.19531,-1.3672 0.13016,-0.3906 0.39063,-0.651 0.78125,-0.7812 0.39063,-0.1302 0.84636,-0.1953 1.36719,-0.1953 l 1.5625,0 1.5625,0 1.5625,0 1.5625,0 1.5625,0 c 0.52084,0 0.97656,0.065 1.36719,0.1953 0.39062,0.1301 0.65104,0.3906 0.78125,0.7812 0.13015,0.3907 0.19531,0.8464 0.19531,1.3672 l 0,1.5625 c 0,0.5208 0.0652,0.9766 0.19531,1.3672 0.13016,0.3906 0.39063,0.651 0.78125,0.7813 0.39063,0.1301 0.84636,0.1953 1.36719,0.1953 l 1.5625,0 1.5625,0 c 0.26042,0 0.45574,0.065 0.58594,0.1953 l 0.8789,-0.098 c 0.58594,-0.065 1.13933,-0.098 1.66016,-0.098 l 1.5625,0 1.5625,0 1.5625,0 1.5625,0 1.5625,0 c 0.52085,0 1.07422,-0.033 1.66016,-0.098 l 0.8789,-0.098 C 153.06516,1025.5367 153,1025.3413 153,1025.0809 l 0,-0.7812 0,-0.7813 0,-1.5625 0,-1.5625 0,-0.7812 0,-0.7813 0,-1.5625 0,-1.5625 c 0,-0.5208 -0.0651,-0.9765 -0.19531,-1.3672 -0.13016,-0.3906 -0.39063,-0.651 -0.78125,-0.7812 -0.39063,-0.1302 -0.84634,-0.1953 -1.36719,-0.1953 l -1.5625,0 c -0.52083,0 -0.97656,-0.065 -1.36719,-0.1953 -0.39062,-0.1302 -0.65103,-0.3907 -0.78125,-0.7813 -0.13015,-0.3906 -0.19531,-0.8464 -0.19531,-1.3672 l 0,-1.5625 0,-1.5625 0,-0.7812 0,-0.7813 0,-0.7812 0,-0.7813 0,-1.5625 0,-0.7812 -0.19531,-0.586 c -0.13016,-0.3906 -0.39063,-0.651 -0.78125,-0.7812 l -0.58594,-0.1953 -0.78125,0 -1.5625,0 -0.78125,0 -0.58594,-0.1953 c -0.39062,-0.1302 -0.65103,-0.3907 -0.78125,-0.7813 l -0.19531,-0.58594 0,-0.78125 0,-1.5625 0,-1.5625 0,-1.5625 0,-1.5625 0,-1.5625 0,-0.78125 -0.19531,-0.58594 c -0.13016,-0.39062 -0.39063,-0.65104 -0.78125,-0.78125 l -0.58594,-0.19531 -0.78125,0 -1.5625,0 -0.78125,0 -0.58594,0.19531 c -0.39062,0.13016 -0.65103,0.39063 -0.78125,0.78125 l -0.19531,0.58594 0,0.78125 0,1.5625 0,0.78125 -0.19531,0.58594 c -0.13016,0.39062 -0.39063,0.65103 -0.78125,0.78125 l -0.58594,0.19531 -0.78125,0 -1.5625,0 -1.5625,0 -1.5625,0 -1.5625,0 -1.5625,0 -0.78125,0 -0.58594,-0.19531 c -0.39062,-0.13016 -0.65103,-0.39063 -0.78125,-0.78125 l -0.19531,-0.58594 0,-0.78125 0,-1.5625 0,-1.5625 0,-1.5625 0,-1.5625 0,-1.5625 0,-0.78125 0,-0.78125 0,-0.78125 -0.58594,0 -0.19531,0 -0.78125,0 -0.78125,0 -1.5625,0 -0.78125,0 -0.39063,0 -0.39062,0 -0.19531,0 -0.58594,0 z m 1.5625,18.75004 0.78125,0 1.5625,0 c 0.52084,0 0.97656,0.065 1.36719,0.1953 0.39062,0.1301 0.65104,0.3906 0.78125,0.7812 0.13015,0.3907 0.19531,0.8464 0.19531,1.3672 l 0,1.5625 c 0,0.5208 -0.0652,0.9766 -0.19531,1.3672 -0.13016,0.3906 -0.39063,0.651 -0.78125,0.7813 -0.39063,0.1301 -0.84635,0.1953 -1.36719,0.1953 l -1.5625,0 c -0.52083,0 -0.97656,-0.065 -1.36719,-0.1953 -0.39062,-0.1302 -0.65103,-0.3907 -0.78125,-0.7813 -0.13015,-0.3906 -0.19531,-0.8464 -0.19531,-1.3672 l 0,-1.5625 0,-0.7812 0.19531,-0.586 c 0.13016,-0.3906 0.39063,-0.651 0.78125,-0.7812 l 0.58594,-0.1953 z m 19.53125,0 1.5625,0 0.78125,0 0.58594,0.1953 c 0.39062,0.1301 0.65105,0.3906 0.78125,0.7812 l 0.19531,0.586 0,0.7812 0,1.5625 c 0,0.5208 -0.0652,0.9766 -0.19531,1.3672 -0.13016,0.3906 -0.39063,0.651 -0.78125,0.7813 -0.39063,0.1301 -0.84635,0.1953 -1.36719,0.1953 l -1.5625,0 c -0.52083,0 -0.97656,-0.065 -1.36719,-0.1953 -0.39062,-0.1302 -0.65103,-0.3907 -0.78125,-0.7813 -0.13015,-0.3906 -0.19531,-0.8464 -0.19531,-1.3672 l 0,-1.5625 c 0,-0.5208 0.0652,-0.9765 0.19531,-1.3672 0.13016,-0.3906 0.39063,-0.651 0.78125,-0.7812 0.39063,-0.1302 0.84636,-0.1953 1.36719,-0.1953 z"
       id="path13915"
       inkscape:connector-curvature="0" />
    <path
       inkscape:connector-curvature="0"
       style="fill:#95854e;fill-opacity:0.39215687"
       d="m 103,950.86216 0,0.58594 0,0.19531 0,0.39062 0,1.17188 0,1.5625 0,0.78125 -0.19531,0.58594 c -0.13016,0.39062 -0.39063,0.65103 -0.78125,0.78125 l -0.58594,0.19531 -0.78125,0 -1.562502,0 c -0.520828,0 -0.976562,0.0652 -1.367187,0.19531 -0.390625,0.13016 -0.651032,0.39063 -0.78125,0.78125 -0.130157,0.39063 -0.195313,0.84634 -0.195313,1.36719 l 0,1.5625 0,1.5625 0,1.5625 0,1.5625 0,1.5625 0,1.5625 0,1.5625 0,1.5625 0,1.5625 c 0,0.52083 0.06516,0.97656 0.195313,1.36719 0.130156,0.39062 0.390625,0.65103 0.78125,0.78125 0.390625,0.13015 0.846359,0.19531 1.367187,0.19531 l 1.562502,0 1.5625,0 1.5625,0 1.5625,0 1.5625,0 0.78125,0 0.78125,0 c 0.26042,0 0.45573,0.0652 0.58594,0.19531 l 0.0977,-0.8789 c 0.0652,-0.58594 0.0977,-1.13933 0.0977,-1.66016 l 0,-1.5625 0,-0.78125 0,-0.78125 0,-0.78125 -0.78125,0 -0.78125,0 -0.78125,0 -1.5625,0 c -0.52083,0 -0.97656,-0.0652 -1.36719,-0.19531 -0.39062,-0.13016 -0.65103,-0.39063 -0.78125,-0.78125 C 103.06515,968.24497 103,967.78924 103,967.26841 l 0,-1.5625 0,-1.5625 0,-1.5625 0,-1.5625 0,-1.5625 c 0,-0.52085 0.0652,-0.97656 0.19531,-1.36719 0.13016,-0.39062 0.39063,-0.65105 0.78125,-0.78125 0.39063,-0.13016 0.84636,-0.19531 1.36719,-0.19531 l 1.5625,0 c 0.52084,0 0.97656,0.0652 1.36719,0.19531 0.39062,0.13016 0.65104,0.39063 0.78125,0.78125 0.13015,0.39063 0.19531,0.84634 0.19531,1.36719 l 0,1.5625 0,1.5625 0,1.5625 0,1.5625 0,1.5625 0,0.78125 0,0.78125 0,0.78125 0.78125,0 0.78125,0 0.78125,0 1.5625,0 1.5625,0 1.5625,0 1.5625,0 1.5625,0 0.78125,0 0.58594,-0.19531 c 0.39062,-0.13016 0.65104,-0.39063 0.78125,-0.78125 l 0.19531,-0.58594 0,-0.78125 0,-1.5625 0,-0.78125 -0.19531,-0.58594 c -0.13016,-0.39062 -0.39063,-0.65105 -0.78125,-0.78125 l -0.58594,-0.19531 -0.78125,0 -1.5625,0 c -0.52083,0 -0.97656,-0.0652 -1.36719,-0.19531 -0.39062,-0.13016 -0.65103,-0.39063 -0.78125,-0.78125 -0.13015,-0.39063 -0.19531,-0.84636 -0.19531,-1.36719 l 0,-1.5625 c 0,-0.52085 0.0652,-0.97656 0.19531,-1.36719 0.13016,-0.39062 0.39063,-0.65105 0.78125,-0.78125 0.39063,-0.13016 0.84636,-0.19531 1.36719,-0.19531 l 1.5625,0 0.78125,0 0.58594,-0.19531 c 0.39062,-0.13016 0.65104,-0.39063 0.78125,-0.78125 l 0.19531,-0.58594 0,-0.78125 0,-1.5625 0,-0.78125 0,-1.5625 -1.5625,0 -0.78125,0 -1.5625,0 -1.5625,0 -1.5625,0 -1.5625,0 -1.5625,0 -1.5625,0 -1.5625,0 -1.5625,0 -1.5625,0 -1.5625,0 -0.78125,0 z m 31.25,0 0,1.5625 0,0.78125 0,1.5625 0,1.5625 0,1.5625 0,1.5625 0,1.5625 0,0.78125 0.19531,0.58594 c 0.13016,0.39062 0.39063,0.65103 0.78125,0.78125 l 0.58594,0.19531 0.78125,0 1.5625,0 0.78125,0 0.78125,0 0.78125,0 0,-0.78125 0,-0.78125 0,-0.78125 0,-1.5625 0,-1.5625 0,-1.5625 0,-1.5625 0,-1.5625 0,-0.78125 0,-1.5625 -1.5625,0 -0.78125,0 -1.5625,0 -0.78125,0 -1.5625,0 z m 6.25,12.5 0,0.78125 0,0.78125 0,0.78125 0,1.5625 c 0,0.52083 -0.0652,0.97656 -0.19531,1.36719 -0.13016,0.39062 -0.39063,0.65103 -0.78125,0.78125 -0.39063,0.13015 -0.84635,0.19531 -1.36719,0.19531 l -1.5625,0 -0.78125,0 -0.58594,0.19531 c -0.39062,0.13016 -0.65103,0.39063 -0.78125,0.78125 l -0.19531,0.58594 0,0.78125 0,1.5625 0,0.78125 0.19531,0.58594 c 0.13016,0.39062 0.39063,0.65103 0.78125,0.78125 l 0.58594,0.19531 0.78125,0 1.5625,0 1.5625,0 1.5625,0 1.5625,0 1.5625,0 1.5625,0 1.5625,0 1.5625,0 1.5625,0 c 0.52085,0 1.07422,0.0325 1.66016,0.0977 l 0.8789,0.0976 c 0.13016,-0.13015 0.32554,-0.19531 0.58594,-0.19531 l 0.39063,0 1.17187,0 1.5625,0 c 0.52085,0 0.97656,-0.0652 1.36719,-0.19531 0.39062,-0.13016 0.65105,-0.39063 0.78125,-0.78125 0.13016,-0.39063 0.19531,-0.84636 0.19531,-1.36719 l 0,-1.5625 0,-0.78125 0,-0.39063 0,-0.39062 c 0,-0.26042 0.0652,-0.45574 0.19531,-0.58594 l -0.8789,-0.0976 -0.87891,-0.0977 -0.78125,0 -1.5625,0 -1.5625,0 -1.5625,0 -1.5625,0 -1.5625,0 c -0.52083,0 -0.97656,-0.0652 -1.36719,-0.19531 -0.39062,-0.13016 -0.65103,-0.39063 -0.78125,-0.78125 -0.13015,-0.39063 -0.19531,-0.84636 -0.19531,-1.36719 l 0,-1.5625 0,-0.78125 -0.19531,-0.58594 c -0.13016,-0.39062 -0.39063,-0.65105 -0.78125,-0.78125 l -0.58594,-0.19531 -0.78125,0 -1.5625,0 -0.78125,0 -0.78125,0 -0.78125,0 z m -31.44531,18.55469 c -0.13016,0.13015 -0.32552,0.19531 -0.58594,0.19531 l -1.5625,0 -1.5625,0 c -0.52083,0 -0.97656,0.0652 -1.36719,0.19531 -0.39062,0.13016 -0.65103,0.39063 -0.78125,0.78125 C 103.06515,983.47935 103,983.93507 103,984.45591 l 0,1.5625 c 0,0.52083 -0.0652,0.97656 -0.19531,1.36719 -0.13016,0.39062 -0.39063,0.65103 -0.78125,0.78125 -0.39063,0.13015 -0.84635,0.19531 -1.36719,0.19531 l -1.562502,0 c -0.520828,0 -0.976562,0.0652 -1.367187,0.19531 -0.390625,0.13016 -0.651032,0.39063 -0.78125,0.78125 -0.130157,0.39063 -0.195313,0.84635 -0.195313,1.36719 l 0,1.5625 c 0,0.52083 -0.06516,0.97656 -0.195312,1.36719 -0.130157,0.39062 -0.390626,0.65103 -0.781251,0.78125 -0.390625,0.13015 -0.846343,0.19531 -1.367187,0.19531 l -1.5625,0 c -0.520828,0 -0.976563,0.0652 -1.367188,0.19531 -0.390625,0.13016 -0.651031,0.39063 -0.78125,0.78125 -0.130156,0.39063 -0.195312,0.84635 -0.195312,1.36719 l 0,1.5625 0,0.78125 0,0.39063 0,0.39061 0,0.1953 0,0.586 0.78125,0 1.5625,0 1.5625,0 1.5625,0 1.5625,0 1.5625,0 1.562502,0 c 0.52084,0 0.97656,0.065 1.36719,0.1953 0.39062,0.1301 0.65104,0.3906 0.78125,0.7812 0.13015,0.3906 0.19531,0.8464 0.19531,1.3672 l 0,1.5625 0,0.7813 0.19531,0.5859 c 0.13016,0.3906 0.39063,0.651 0.78125,0.7812 l 0.58594,0.1954 0.78125,0 1.5625,0 0.78125,0 0.78125,0 0.78125,0 0,-0.586 0,-0.1953 0,-0.7812 0,-0.7813 0,-1.5625 0,-0.7812 0.19531,-0.586 c 0.13016,-0.3906 0.39063,-0.651 0.78125,-0.7812 l 0.58594,-0.1953 0.78125,0 1.5625,0 0.78125,0 0.58594,-0.1954 c 0.39062,-0.1301 0.65104,-0.3906 0.78125,-0.7812 l 0.19531,-0.58594 0,-0.78125 0,-1.5625 0,-1.5625 0,-1.5625 0,-1.5625 0,-1.5625 0,-1.5625 0,-1.5625 0,-1.5625 0,-1.5625 0,-0.78125 0,-0.78125 0,-0.78125 -0.58594,0 -0.19531,0 -0.78125,0 -0.78125,0 -1.5625,0 c -0.52083,0 -1.07422,-0.0325 -1.66016,-0.0977 l -0.8789,-0.0977 z m 12.69531,0.19531 0,1.5625 0,0.78125 0,1.5625 0,0.78125 0,0.78125 0,1.5625 0,1.5625 0,1.5625 0,0.78125 0.19531,0.58594 c 0.13016,0.39062 0.39063,0.65103 0.78125,0.78125 l 0.58594,0.19531 0.78125,0 1.5625,0 1.5625,0 1.5625,0 1.5625,0 1.5625,0 0.78125,0 0.58594,-0.19531 c 0.39062,-0.13016 0.65104,-0.39063 0.78125,-0.78125 l 0.19531,-0.58594 0,-0.78125 0,-1.5625 0,-0.78125 0.19531,-0.58594 c 0.13016,-0.39062 0.39063,-0.65104 0.78125,-0.78125 l 0.58594,-0.19531 0.78125,0 1.5625,0 0.78125,0 0.58594,0.19531 c 0.39062,0.13016 0.65105,0.39063 0.78125,0.78125 l 0.19531,0.58594 0,0.78125 0,1.5625 0,1.5625 0,1.5625 0,1.5625 0,1.5625 0,0.78125 0.19531,0.58594 c 0.13016,0.3906 0.39063,0.651 0.78125,0.7812 l 0.58594,0.1954 0.78125,0 1.5625,0 0.78125,0 0.58594,0.1953 c 0.39062,0.1301 0.65105,0.3906 0.78125,0.7812 l 0.19531,0.586 0,0.7812 0,1.5625 0,0.7813 0,0.3906 0,0.3906 0,0.1953 0,0.586 0.78125,0 0.78125,0 0.78125,0 1.5625,0 0.78125,0 0.58594,-0.1954 c 0.39062,-0.1301 0.65105,-0.3906 0.78125,-0.7812 l 0.19531,-0.5859 0,-0.7813 0,-1.5625 c 0,-0.5208 0.0652,-0.9766 0.19531,-1.3672 0.13016,-0.3906 0.39063,-0.651 0.78125,-0.7812 0.39063,-0.1302 0.84636,-0.1953 1.36719,-0.1953 l 1.5625,0 1.5625,0 1.5625,0 1.5625,0 1.5625,0 1.5625,0 0.78125,0 0,-0.586 0,-0.1953 0,-0.78124 0,-0.78125 0,-1.5625 c 0,-0.52084 -0.0651,-0.97656 -0.19531,-1.36719 -0.13016,-0.39062 -0.39063,-0.65104 -0.78125,-0.78125 -0.39063,-0.13015 -0.84634,-0.19531 -1.36719,-0.19531 l -1.5625,0 c -0.52083,0 -0.97656,-0.0652 -1.36719,-0.19531 -0.39062,-0.13016 -0.65103,-0.39063 -0.78125,-0.78125 -0.13015,-0.39063 -0.19531,-0.84636 -0.19531,-1.36719 l 0,-1.5625 c 0,-0.52084 -0.0651,-0.97656 -0.19531,-1.36719 -0.13016,-0.39062 -0.39063,-0.65104 -0.78125,-0.78125 -0.39063,-0.13015 -0.84634,-0.19531 -1.36719,-0.19531 l -1.5625,0 -1.5625,0 -1.5625,0 -1.5625,0 -1.5625,0 -1.5625,0 -1.5625,0 -1.5625,0 -1.5625,0 c -0.52083,0 -0.97656,-0.0652 -1.36719,-0.19531 -0.39062,-0.13016 -0.65103,-0.39063 -0.78125,-0.78125 -0.13015,-0.39063 -0.19531,-0.84636 -0.19531,-1.36719 l 0,-1.5625 0,-0.78125 0,-0.39063 0,-0.39062 c 0,-0.26042 0.0652,-0.45573 0.19531,-0.58594 l -0.19531,-0.0214 0,-0.17395 -0.58594,0 -0.19531,0 -0.78125,0 -0.78125,0 -1.5625,0 -1.5625,0 -1.5625,0 -1.5625,0 -1.5625,0 -1.5625,0 -1.5625,0 -1.5625,0 -1.5625,0 -0.78125,0 -0.39063,0 -0.39062,0 -0.19531,0 -0.58594,0 z m -18.94531,43.55464 c -0.13016,0.1302 -0.32552,0.1954 -0.58594,0.1954 l -1.5625,0 -1.562502,0 c -0.520828,0 -0.976562,0.065 -1.367187,0.1953 -0.390625,0.1301 -0.651032,0.3906 -0.78125,0.7812 -0.130157,0.3906 -0.195313,0.8464 -0.195313,1.3672 l 0,1.5625 c 0,0.5208 -0.06516,0.9766 -0.195312,1.3672 -0.130157,0.3906 -0.390626,0.651 -0.781251,0.7813 -0.390625,0.1301 -0.846343,0.1953 -1.367187,0.1953 l -1.5625,0 c -0.520828,0 -0.976563,0.065 -1.367188,0.1953 -0.390625,0.1301 -0.651031,0.3906 -0.78125,0.7812 -0.130156,0.3907 -0.195312,0.8464 -0.195312,1.3672 l 0,1.5625 0,1.5625 0,0.7813 0.78125,0 0.78125,0 0.78125,0 0.78125,0 0.78125,0 0.78125,0 0.78125,0 0.78125,0 0.78125,0 0.78125,0 0.78125,0 0.78125,0 0.781252,0 0.78125,0 0.78125,0 0.78125,0 0.78125,0 0.78125,0 0.78125,0 0.78125,0 0.78125,0 0.78125,0 0.78125,0 0.78125,0 0.78125,0 0.78125,0 0.78125,0 0.78125,0 0.78125,0 0.78125,0 0.78125,0 0.78125,0 0,-0.7813 0,-1.5625 0,-1.5625 0,-1.5625 0,-1.5625 0,-1.5625 0,-1.5625 0,-1.1719 0,-0.3906 c 0,-0.2604 0.0652,-0.4557 0.19531,-0.5859 l -0.8789,-0.098 c -0.58594,-0.065 -1.13932,-0.098 -1.66016,-0.098 l -1.5625,0 -1.5625,0 -1.5625,0 -1.5625,0 -1.5625,0 c -0.52083,0 -1.07422,-0.033 -1.66016,-0.098 l -0.8789,-0.098 z m 50.39062,0 -0.8789,0.098 c -0.58594,0.065 -1.13931,0.098 -1.66016,0.098 l -1.5625,0 -1.5625,0 -1.5625,0 -1.5625,0 -1.5625,0 c -0.52083,0 -1.07422,0.033 -1.66016,0.098 l -0.8789,0.098 c 0.13015,0.1301 0.19531,0.3255 0.19531,0.5859 l 0,0.3906 0,1.1719 0,1.5625 0,1.5625 0,1.5625 0,1.5625 0,1.5625 0,1.5625 0,0.7813 0.78125,0 0.78125,0 0.78125,0 0.78125,0 0.78125,0 0.78125,0 0.78125,0 0.78125,0 0.78125,0 0.78125,0 0.78125,0 0.78125,0 0.78125,0 0.78125,0 0.78125,0 0.78125,0 0.78125,0 0.78125,0 0.78125,0 0.78125,0 0.78125,0 0.78125,0 0.78125,0 0.78125,0 0.78125,0 0.78125,0 0.78125,0 0.78125,0 0.78125,0 0.78125,0 0.78125,0 0.78125,0 0,-0.7813 0,-1.5625 0,-1.5625 c 0,-0.5208 -0.0651,-0.9765 -0.19531,-1.3672 -0.13016,-0.3906 -0.39063,-0.651 -0.78125,-0.7812 -0.39063,-0.1302 -0.84634,-0.1953 -1.36719,-0.1953 l -1.5625,0 c -0.52083,0 -0.97656,-0.065 -1.36719,-0.1953 -0.39062,-0.1302 -0.65103,-0.3907 -0.78125,-0.7813 -0.13015,-0.3906 -0.19531,-0.8464 -0.19531,-1.3672 l 0,-1.5625 c 0,-0.5208 -0.0651,-0.9766 -0.19531,-1.3672 -0.13016,-0.3906 -0.39063,-0.651 -0.78125,-0.7812 -0.39063,-0.1302 -0.84634,-0.1953 -1.36719,-0.1953 l -1.5625,0 -1.17187,0 -0.39063,0 c -0.2604,0 -0.45572,-0.065 -0.58594,-0.1954 z"
       id="path13927" />
    <path
       style="fill:#ffbc7b;fill-opacity:0.39215687"
       d="m 121.75,950.86216 0,0.78125 0,0.78125 0,0.78125 0,1.5625 0,0.78125 -0.19531,0.58594 c -0.13016,0.39062 -0.39063,0.65103 -0.78125,0.78125 l -0.58594,0.19531 -0.78125,0 -1.5625,0 c -0.52083,0 -0.97656,0.0652 -1.36719,0.19531 -0.39062,0.13016 -0.65103,0.39063 -0.78125,0.78125 -0.13015,0.39063 -0.19531,0.84635 -0.19531,1.36719 l 0,1.5625 c 0,0.52083 0.0652,0.97656 0.19531,1.36719 0.13016,0.39062 0.39063,0.65103 0.78125,0.78125 0.39063,0.13015 0.84636,0.19531 1.36719,0.19531 l 1.5625,0 0.78125,0 0.58594,0.19531 c 0.39062,0.13016 0.65104,0.39063 0.78125,0.78125 l 0.19531,0.58594 0,0.78125 0,1.5625 0,0.78125 -0.19531,0.58594 c -0.13016,0.39062 -0.39063,0.65103 -0.78125,0.78125 l -0.58594,0.19531 -0.78125,0 -1.5625,0 -1.5625,0 -1.5625,0 -1.5625,0 -1.5625,0 -0.78125,0 -0.78125,0 -0.78125,0 0,0.78125 0,0.78125 0,0.78125 0,1.5625 c 0,0.52083 -0.0325,1.07422 -0.0977,1.66016 l -0.0977,0.8789 c 0.13015,0.13016 0.19531,0.32552 0.19531,0.58594 l 0,0.39063 0,1.17187 0,1.5625 0,0.78125 0,0.39063 0,0.39062 c 0,0.26041 -0.0652,0.45572 -0.19531,0.58594 l 0.8789,0.0977 c 0.58594,0.0652 1.13933,0.0977 1.66016,0.0977 l 1.5625,0 0.78125,0 0.78125,0 1.5625,0 0.78125,0 0.78125,0 1.5625,0 0.78125,0 0.78125,0 1.5625,0 0.78125,0 0.78125,0 1.5625,0 1.5625,0 1.5625,0 1.5625,0 1.5625,0 1.5625,0 1.5625,0 1.5625,0 1.5625,0 0.78125,0 0.87891,0.0977 0.8789,0.0976 c 0.13016,-0.13015 0.32553,-0.19531 0.58594,-0.19531 l 0.39063,0 1.17187,0 1.5625,0 1.5625,0 1.5625,0 1.5625,0 1.5625,0 c 0.52085,0 0.97656,-0.0652 1.36719,-0.19531 0.39062,-0.13016 0.65105,-0.39063 0.78125,-0.78125 C 152.93485,980.74497 153,980.28924 153,979.76841 l 0,-1.5625 0,-0.78125 0,-0.39062 0,-0.39063 c 0,-0.26042 0.0652,-0.45573 0.19531,-0.58594 l -0.8789,-0.0976 c -0.58594,-0.0652 -1.13931,-0.0977 -1.66016,-0.0977 l -1.5625,0 -1.5625,0 -1.5625,0 -1.5625,0 -1.5625,0 -1.5625,0 -1.5625,0 -1.5625,0 -1.5625,0 -0.78125,0 -0.58594,-0.19531 c -0.39062,-0.13016 -0.65103,-0.39063 -0.78125,-0.78125 l -0.19531,-0.58594 0,-0.78125 0,-1.5625 0,-0.78125 0.19531,-0.58594 c 0.13016,-0.39062 0.39063,-0.65104 0.78125,-0.78125 l 0.58594,-0.19531 0.78125,0 1.5625,0 c 0.52084,0 0.97656,-0.0652 1.36719,-0.19531 0.39062,-0.13016 0.65105,-0.39063 0.78125,-0.78125 0.13015,-0.39063 0.19531,-0.84636 0.19531,-1.36719 l 0,-1.5625 0,-0.78125 0,-0.78125 0,-0.78125 -0.78125,0 -0.78125,0 -0.78125,0 -1.5625,0 -0.78125,0 -0.58594,-0.19531 c -0.39062,-0.13016 -0.65103,-0.39063 -0.78125,-0.78125 l -0.19531,-0.58594 0,-0.78125 0,-1.5625 0,-1.5625 0,-1.5625 0,-1.5625 0,-1.5625 0,-0.78125 0,-0.78125 0,-0.78125 -0.58594,0 -0.19531,0 -1.5625,0 -1.5625,0 -1.5625,0 -1.5625,0 -1.5625,0 -1.5625,0 -1.17188,0 -0.39062,0 -0.19531,0 -0.58594,0 z m 18.75,12.5 0.78125,0 0.78125,0 0.78125,0 1.5625,0 0.78125,0 0.58594,0.19531 c 0.39062,0.13016 0.65105,0.39063 0.78125,0.78125 l 0.19531,0.58594 0,0.78125 0,1.5625 c 0,0.52083 0.0652,0.97656 0.19531,1.36719 0.13016,0.39062 0.39063,0.65103 0.78125,0.78125 0.39063,0.13015 0.84636,0.19531 1.36719,0.19531 l 1.5625,0 1.5625,0 1.5625,0 1.5625,0 1.5625,0 0.78125,0 0.87891,0.0977 0.8789,0.0976 c 0.13016,-0.13015 0.32554,-0.19531 0.58594,-0.19531 l 0.39063,0 1.17187,0 1.5625,0 c 0.52085,0 0.97656,-0.0652 1.36719,-0.19531 0.39062,-0.13016 0.65105,-0.39063 0.78125,-0.78125 0.13016,-0.39063 0.19531,-0.84636 0.19531,-1.36719 l 0,-1.5625 c 0,-0.52084 -0.0651,-0.97656 -0.19531,-1.36719 -0.13016,-0.39062 -0.39063,-0.65104 -0.78125,-0.78125 -0.39063,-0.13015 -0.84634,-0.19531 -1.36719,-0.19531 l -1.5625,0 c -0.52083,0 -0.97656,-0.0652 -1.36719,-0.19531 -0.39062,-0.13016 -0.65103,-0.39063 -0.78125,-0.78125 -0.13015,-0.39063 -0.19531,-0.84636 -0.19531,-1.36719 l 0,-1.5625 c 0,-0.52084 -0.0651,-0.97656 -0.19531,-1.36719 -0.13016,-0.39062 -0.39063,-0.65104 -0.78125,-0.78125 -0.39063,-0.13015 -0.84634,-0.19531 -1.36719,-0.19531 l -1.5625,0 -1.5625,0 -1.5625,0 -1.5625,0 -1.5625,0 c -0.52083,0 -0.97656,-0.0652 -1.36719,-0.19531 -0.39062,-0.13016 -0.65103,-0.39063 -0.78125,-0.78125 -0.13015,-0.39063 -0.19531,-0.84636 -0.19531,-1.36719 l 0,-1.5625 0,-0.78125 0,-0.78125 0,-0.78125 -0.58594,0 -0.19531,0 -1.5625,0 -1.5625,0 -1.17187,0 -0.39063,0 -0.19531,0 -0.58594,0 0,0.78125 0,0.78125 0,0.78125 0,1.5625 0,1.5625 0,1.5625 0,1.5625 0,1.5625 0,0.78125 0,0.78125 0,0.78125 z m -31.25,6.25 0,-0.78125 0,-0.78125 0,-0.78125 0,-1.5625 0,-1.5625 0,-1.5625 0,-1.5625 0,-1.5625 c 0,-0.52084 -0.0652,-0.97656 -0.19531,-1.36719 -0.13016,-0.39062 -0.39063,-0.65104 -0.78125,-0.78125 -0.39063,-0.13015 -0.84635,-0.19531 -1.36719,-0.19531 l -1.5625,0 c -0.52083,0 -0.97656,0.0652 -1.36719,0.19531 -0.39062,0.13016 -0.65103,0.39063 -0.78125,0.78125 C 103.06515,958.47935 103,958.93507 103,959.45591 l 0,1.5625 0,1.5625 0,1.5625 0,1.5625 0,1.5625 c 0,0.52083 0.0652,0.97656 0.19531,1.36719 0.13016,0.39062 0.39063,0.65103 0.78125,0.78125 0.39063,0.13015 0.84636,0.19531 1.36719,0.19531 l 1.5625,0 0.78125,0 0.78125,0 0.78125,0 z m -18.750002,31.25004 0,0.5859 0,0.1953 0,0.3906 0,0.3907 0,0.7812 0,1.5625 0,1.5625 0,1.5625 0,1.5625 0,1.5625 0,1.5625 0,1.5625 0,1.5625 0,1.5625 c 0,0.5208 0.06516,0.9766 0.195312,1.3672 0.130156,0.3906 0.390625,0.651 0.78125,0.7813 0.390625,0.1301 0.84636,0.1953 1.367188,0.1953 l 1.5625,0 1.5625,0 1.5625,0 1.5625,0 1.562502,0 0.78125,0 0.78125,0 0.78125,0 0,-0.586 0,-0.1953 0,-1.5625 0,-1.5625 c 0,-0.5208 0.0652,-0.9765 0.19531,-1.3672 0.13016,-0.3906 0.39063,-0.651 0.78125,-0.7812 0.39063,-0.1302 0.84636,-0.1953 1.36719,-0.1953 l 1.5625,0 c 0.52084,0 0.97656,-0.065 1.36719,-0.1953 0.39062,-0.1302 0.65104,-0.3907 0.78125,-0.7813 0.13015,-0.3906 0.19531,-0.8464 0.19531,-1.3672 l 0,-1.5625 0,-1.1719 0,-0.3906 0,-0.1953 0,-0.5859 -0.78125,0 -0.78125,0 -0.78125,0 -1.5625,0 -0.78125,0 -0.58594,-0.1953 c -0.39062,-0.1302 -0.65103,-0.3907 -0.78125,-0.7813 L 103,1005.5497 l 0,-0.7813 0,-1.5625 c 0,-0.5208 -0.0652,-0.9765 -0.19531,-1.3672 -0.13016,-0.3906 -0.39063,-0.651 -0.78125,-0.7812 -0.39063,-0.1302 -0.84635,-0.1953 -1.36719,-0.1953 l -1.562502,0 -1.5625,0 -1.5625,0 -1.5625,0 -1.5625,0 -1.5625,0 -0.78125,0 z m 26.562502,0 -0.58594,0.1953 c -0.39062,0.1301 -0.65103,0.3906 -0.78125,0.7812 l -0.19531,0.586 0,0.7812 0,1.5625 c 0,0.5208 0.0652,0.9766 0.19531,1.3672 0.13016,0.3906 0.39063,0.651 0.78125,0.7813 0.39063,0.1301 0.84636,0.1953 1.36719,0.1953 l 1.5625,0 c 0.52084,0 0.97656,-0.065 1.36719,-0.1953 0.39062,-0.1302 0.65104,-0.3907 0.78125,-0.7813 0.13015,-0.3906 0.19531,-0.8464 0.19531,-1.3672 l 0,-1.5625 c 0,-0.5208 -0.0652,-0.9765 -0.19531,-1.3672 -0.13016,-0.3906 -0.39063,-0.651 -0.78125,-0.7812 -0.39063,-0.1302 -0.84635,-0.1953 -1.36719,-0.1953 l -1.5625,0 -0.78125,0 z m 19.53125,0 c -0.52083,0 -0.97656,0.065 -1.36719,0.1953 -0.39062,0.1301 -0.65103,0.3906 -0.78125,0.7812 -0.13015,0.3907 -0.19531,0.8464 -0.19531,1.3672 l 0,1.5625 c 0,0.5208 0.0652,0.9766 0.19531,1.3672 0.13016,0.3906 0.39063,0.651 0.78125,0.7813 0.39063,0.1301 0.84636,0.1953 1.36719,0.1953 l 1.5625,0 c 0.52084,0 0.97656,-0.065 1.36719,-0.1953 0.39062,-0.1302 0.65105,-0.3907 0.78125,-0.7813 0.13015,-0.3906 0.19531,-0.8464 0.19531,-1.3672 l 0,-1.5625 0,-0.7812 -0.19531,-0.586 c -0.13016,-0.3906 -0.39063,-0.651 -0.78125,-0.7812 l -0.58594,-0.1953 -0.78125,0 -1.5625,0 z m 18.75,0 c -0.52083,0 -0.97656,0.065 -1.36719,0.1953 -0.39062,0.1301 -0.65103,0.3906 -0.78125,0.7812 -0.13015,0.3907 -0.19531,0.8464 -0.19531,1.3672 l 0,1.5625 0,0.7813 -0.19531,0.5859 c -0.13016,0.3906 -0.39063,0.651 -0.78125,0.7813 l -0.58594,0.1953 -0.78125,0 -1.5625,0 -0.78125,0 -0.78125,0 -0.78125,0 0,0.5859 0,0.1953 0,0.3906 0,1.1719 0,1.5625 c 0,0.5208 0.0652,0.9766 0.19531,1.3672 0.13016,0.3906 0.39063,0.651 0.78125,0.7813 0.39063,0.1301 0.84636,0.1953 1.36719,0.1953 l 1.5625,0 c 0.52085,0 0.97656,0.065 1.36719,0.1953 0.39062,0.1301 0.65105,0.3906 0.78125,0.7812 0.13016,0.3907 0.19531,0.8464 0.19531,1.3672 l 0,1.5625 0,1.5625 0,0.1953 0,0.586 0.78125,0 0.78125,0 0.78125,0 1.5625,0 1.5625,0 1.5625,0 1.5625,0 1.5625,0 c 0.52085,0 0.97656,-0.065 1.36719,-0.1953 0.39062,-0.1302 0.65105,-0.3907 0.78125,-0.7813 0.13016,-0.3906 0.19531,-0.8464 0.19531,-1.3672 l 0,-1.5625 0,-1.5625 0,-1.5625 0,-1.5625 0,-1.5625 0,-1.5625 0,-1.5625 0,-1.5625 0,-1.5625 0,-0.7812 0,-0.3907 0,-0.3906 0,-0.1953 0,-0.5859 -0.78125,0 -1.5625,0 -1.5625,0 -1.5625,0 -1.5625,0 -1.5625,0 -1.5625,0 z"
       id="path13931"
       inkscape:connector-curvature="0" />
    <text
       sodipodi:linespacing="125%"
       id="text4740"
       y="983.29248"
       x="129.70529"
       style="font-style:normal;font-variant:normal;font-weight:bold;font-stretch:normal;font-size:26.3794899px;line-height:125%;font-family:Couture;-inkscape-font-specification:'Couture Bold';text-align:center;letter-spacing:-1.31897449px;word-spacing:0px;text-anchor:middle;fill:#000000;fill-opacity:0.19607843;stroke:none;stroke-width:1px;stroke-linecap:butt;stroke-linejoin:miter;stroke-opacity:1"
       xml:space="preserve"><tspan
         y="983.29248"
         x="132.3793"
         id="tspan4742"
         sodipodi:role="line">Simple </tspan><tspan
         id="tspan4744"
         y="1016.2668"
         x="129.04581"
         sodipodi:role="line">Badge Injector</tspan></text>
    <text
       xml:space="preserve"
       style="font-style:normal;font-variant:normal;font-weight:bold;font-stretch:normal;font-size:26.3794899px;line-height:125%;font-family:Couture;-inkscape-font-specification:'Couture Bold';text-align:center;letter-spacing:-1.31897449px;word-spacing:0px;text-anchor:middle;fill:#ffffff;fill-opacity:1;stroke:none;stroke-width:1px;stroke-linecap:butt;stroke-linejoin:miter;stroke-opacity:1"
       x="127.70529"
       y="981.29248"
       id="text4734"
       sodipodi:linespacing="125%"><tspan
         sodipodi:role="line"
         id="tspan4736"
         x="130.3793"
         y="981.29248">Simple </tspan><tspan
         sodipodi:role="line"
         x="127.04581"
         y="1014.2668"
         id="tspan4738">Badge Injector</tspan></text>
  </g>
</svg>
