<?xml version="1.0" encoding="UTF-8" standalone="no"?>
<!-- Created with Inkscape (http://www.inkscape.org/) -->

<svg
   xmlns:dc="http://purl.org/dc/elements/1.1/"
   xmlns:cc="http://creativecommons.org/ns#"
   xmlns:rdf="http://www.w3.org/1999/02/22-rdf-syntax-ns#"
   xmlns:svg="http://www.w3.org/2000/svg"
   xmlns="http://www.w3.org/2000/svg"
   xmlns:sodipodi="http://sodipodi.sourceforge.net/DTD/sodipodi-0.dtd"
   xmlns:inkscape="http://www.inkscape.org/namespaces/inkscape"
   width="48"
   height="48"
   viewBox="0 0 48 48"
   id="svg2"
   version="1.1"
   inkscape:version="0.91 r13725"
   sodipodi:docname="icon.svg">
  <defs
     id="defs4" />
  <sodipodi:namedview
     id="base"
     pagecolor="#ffffff"
     bordercolor="#666666"
     borderopacity="1.0"
     inkscape:pageopacity="0.0"
     inkscape:pageshadow="2"
     inkscape:zoom="5.6568542"
     inkscape:cx="5.0523706"
     inkscape:cy="10.804953"
     inkscape:document-units="px"
     inkscape:current-layer="layer1"
     showgrid="true"
     units="px"
     inkscape:object-paths="true"
     inkscape:snap-intersection-paths="true"
     inkscape:object-nodes="true"
     inkscape:snap-smooth-nodes="true"
     inkscape:snap-midpoints="true"
     inkscape:window-width="1680"
     inkscape:window-height="987"
     inkscape:window-x="-8"
     inkscape:window-y="-8"
     inkscape:window-maximized="1">
    <inkscape:grid
       type="xygrid"
       id="grid5080"
       spacingy="8"
       spacingx="8"
       empspacing="1"
       enabled="false" />
  </sodipodi:namedview>
  <metadata
     id="metadata7">
    <rdf:RDF>
      <cc:Work
         rdf:about="">
        <dc:format>image/svg+xml</dc:format>
        <dc:type
           rdf:resource="http://purl.org/dc/dcmitype/StillImage" />
        <dc:title />
      </cc:Work>
    </rdf:RDF>
  </metadata>
  <g
     inkscape:label="Layer 1"
     inkscape:groupmode="layer"
     id="layer1"
     transform="translate(0,-1004.3622)">
    <rect
       style="opacity:1;fill:#7cecbe;fill-opacity:1;fill-rule:evenodd;stroke:none;stroke-width:5;stroke-linecap:round;stroke-linejoin:round;stroke-miterlimit:4;stroke-dasharray:none;stroke-dashoffset:0;stroke-opacity:0.78431373"
       id="rect4142"
       width="48"
       height="48"
       x="0"
       y="1004.3622" />
    <path
       style="opacity:1;fill:#ffffff;fill-opacity:0.19607843;fill-rule:evenodd;stroke:none;stroke-width:5;stroke-linecap:round;stroke-linejoin:round;stroke-miterlimit:4;stroke-dasharray:none;stroke-dashoffset:0;stroke-opacity:0.78431373"
       d="m 40,1004.3622 -40,40 0,-16 24,-24 16,0 z m -32,0 -8,8 0,-8 8,0 z m 40,8 0,16 -24,24 -16,0 40,-40 z m 0,32 0,8 -8,0 8,-8 z"
       id="path4157"
       inkscape:connector-curvature="0" />
    <path
       style="fill:#1dc2d4;fill-opacity:0.39215687"
       d="m 16,1007.0289 0,0.3333 0,0.6667 0,0.6666 c 0,0.2223 -0.0278,0.4167 -0.08333,0.5834 -0.05553,0.1666 -0.166667,0.2777 -0.333334,0.3333 -0.166666,0.055 -0.361106,0.083 -0.583333,0.083 l -0.666667,0 c -0.22222,0 -0.416666,0.028 -0.583333,0.083 -0.166667,0.055 -0.277773,0.1666 -0.333333,0.3333 -0.05553,0.1667 -0.08333,0.3611 -0.08333,0.5833 l 0,0.6667 0,0.3333 0,0.1667 0,0.1667 0,0.083 0,0.25 0.333334,0 0.666666,0 0.666667,0 0.666667,0 0.666666,0 0.666667,0 0.666667,0 0.666666,0 0.666667,0 0.666667,0 0.666666,0 0.333334,0 0.333333,0 0.333333,0 0.333334,0 0.666666,0 0.666667,0 0.666667,0 0.666666,0 0.666667,0 0.666667,0 0.666666,0 0.333334,0 0.333333,0 0.333333,0 0.333334,0 0.666666,0 0.333334,0 0.333333,0 0.333333,0 0.333334,0 0.666666,0 0.666667,0 0.666667,0 0.333333,0 0.333333,0 0.666667,0 0.666667,0 0.666666,0 0.666667,0 0.666667,0 0.666667,0 c 0.222226,0 0.416666,-0.028 0.583333,-0.083 0.166667,-0.056 0.27778,-0.1667 0.333333,-0.3334 0.05553,-0.1666 0.08333,-0.3611 0.08333,-0.5833 l 0,-0.6667 c 0,-0.2222 -0.0278,-0.4166 -0.08333,-0.5833 -0.05553,-0.1667 -0.166666,-0.2778 -0.333333,-0.3333 -0.166667,-0.056 -0.361107,-0.083 -0.583333,-0.083 l -0.666667,0 -0.666667,0 -0.666667,0 -0.666666,0 -0.666667,0 -0.666667,0 -0.666666,0 -0.666667,0 -0.666667,0 c -0.22222,0 -0.416666,-0.028 -0.583333,-0.083 -0.166667,-0.056 -0.277773,-0.1667 -0.333333,-0.3333 -0.05553,-0.1667 -0.08333,-0.3611 -0.08333,-0.5834 l 0,-0.6666 0,-0.6667 0,-0.3333 -0.333333,0 -0.333333,0 -0.333334,0 -0.333333,0 -0.333333,0 -0.333334,0 -0.333333,0 -0.333333,0 -0.333334,0 -0.333333,0 -0.333333,0 -0.333334,0 -0.333333,0 -0.333333,0 -0.333334,0 -0.333333,0 -0.333333,0 -0.333334,0 -0.333333,0 -0.333333,0 -0.333334,0 -0.333333,0 -0.333333,0 -0.333334,0 -0.333333,0 -0.333333,0 -0.333334,0 -0.333333,0 -0.333333,0 -0.333334,0 -0.333333,0 -0.333333,0 -0.333334,0 -0.333333,0 -0.333333,0 -0.333334,0 -0.333333,0 -0.333333,0 -0.333334,0 -0.333333,0 z m 2.666667,18.6666 0,0.3334 0,0.3333 0,0.3333 0,0.6667 0,0.6667 0,0.6666 0,0.6667 0,0.6667 0,0.6666 0,0.6667 0,0.6667 0,0.6666 0,0.3334 -0.08333,0.25 c -0.05553,0.1666 -0.166666,0.2777 -0.333333,0.3333 l -0.25,0.083 -0.333333,0 -0.666667,0 -0.333333,0 -0.25,0.083 c -0.166667,0.055 -0.277774,0.1666 -0.333334,0.3333 l -0.08333,0.25 0,0.3333 0,0.6667 0,0.3333 0,0.3334 0,0.3333 0,0.3333 0,0.6667 0,0.6667 c 0,0.2222 -0.0278,0.4166 -0.08333,0.5833 -0.05553,0.1667 -0.166667,0.2778 -0.333334,0.3333 -0.166666,0.056 -0.361106,0.083 -0.583333,0.083 l -0.666667,0 c -0.22222,0 -0.416666,0.028 -0.583333,0.083 -0.166667,0.055 -0.277773,0.1667 -0.333333,0.3333 -0.05553,0.1667 -0.08333,0.3611 -0.08333,0.5834 l 0,0.6666 0,0.6667 0,0.3333 0,0.3334 0,0.6666 0,0.6667 0,0.3333 0,0.1667 0,0.1667 c 0,0.1111 -0.0278,0.1944 -0.08333,0.25 l 0.375,0.042 c 0.25,0.028 0.486113,0.042 0.708333,0.042 l 0.666667,0 0.666667,0 0.666666,0 0.666667,0 0.666667,0 c 0.222226,0 0.458333,0.014 0.708333,0.042 l 0.375,0.042 c 0.05553,-0.055 0.138893,-0.083 0.25,-0.083 l 0.166667,0 0.5,0 0.666666,0 c 0.222227,0 0.416667,-0.028 0.583334,-0.083 0.166666,-0.056 0.27778,-0.1667 0.333333,-0.3334 0.05553,-0.1666 0.08333,-0.3611 0.08333,-0.5833 l 0,-0.6667 c 0,-0.2222 0.0278,-0.4166 0.08333,-0.5833 0.05553,-0.1667 0.166666,-0.2778 0.333333,-0.3333 0.166667,-0.056 0.361113,-0.083 0.583333,-0.083 l 0.666667,0 0.666667,0 0.666666,0 0.666667,0 0.666667,0 c 0.222226,0 0.416666,0.028 0.583333,0.083 0.166667,0.055 0.27778,0.1666 0.333333,0.3333 0.05553,0.1667 0.08333,0.3611 0.08333,0.5833 l 0,0.6667 c 0,0.2222 0.0278,0.4167 0.08333,0.5833 0.05553,0.1667 0.166667,0.2778 0.333333,0.3334 0.166667,0.055 0.361114,0.083 0.583334,0.083 l 0.666666,0 0.666667,0 c 0.111113,0 0.194447,0.028 0.25,0.083 l 0.375,-0.042 c 0.25,-0.028 0.486113,-0.042 0.708333,-0.042 l 0.666667,0 0.666667,0 0.666666,0 0.666667,0 0.666667,0 c 0.222226,0 0.458333,-0.014 0.708333,-0.042 l 0.375,-0.042 c -0.05553,-0.056 -0.08333,-0.1389 -0.08333,-0.25 l 0,-0.3334 0,-0.3333 0,-0.6667 0,-0.6666 0,-0.3334 0,-0.3333 0,-0.6667 0,-0.6666 c 0,-0.2223 -0.0278,-0.4167 -0.08333,-0.5834 -0.05553,-0.1666 -0.166666,-0.2777 -0.333333,-0.3333 -0.166667,-0.055 -0.361107,-0.083 -0.583333,-0.083 l -0.666667,0 c -0.22222,0 -0.416667,-0.028 -0.583333,-0.083 -0.166667,-0.055 -0.277774,-0.1666 -0.333334,-0.3333 C 32.0278,1038.4455 32,1038.2511 32,1038.0289 l 0,-0.6667 0,-0.6667 0,-0.3333 0,-0.3333 0,-0.3334 0,-0.3333 0,-0.6667 0,-0.3333 -0.08333,-0.25 c -0.05553,-0.1667 -0.166667,-0.2778 -0.333334,-0.3333 l -0.25,-0.083 -0.333333,0 -0.666667,0 -0.333333,0 -0.25,-0.083 c -0.166667,-0.055 -0.277773,-0.1667 -0.333333,-0.3333 l -0.08333,-0.25 0,-0.3334 0,-0.6666 0,-0.6667 0,-0.6667 0,-0.6666 0,-0.6667 0,-0.3333 -0.08333,-0.25 c -0.05553,-0.1667 -0.166667,-0.2778 -0.333333,-0.3334 l -0.25,-0.083 -0.333334,0 -0.666666,0 -0.333334,0 -0.25,0.083 c -0.166666,0.056 -0.277773,0.1667 -0.333333,0.3334 l -0.08333,0.25 0,0.3333 0,0.6667 0,0.3333 -0.08333,0.25 c -0.05553,0.1667 -0.166666,0.2778 -0.333333,0.3333 l -0.25,0.083 -0.333333,0 -0.666667,0 -0.666667,0 -0.666666,0 -0.666667,0 -0.666667,0 -0.333333,0 -0.25,-0.083 c -0.166667,-0.055 -0.277773,-0.1666 -0.333333,-0.3333 l -0.08333,-0.25 0,-0.3333 0,-0.6667 0,-0.6667 0,-0.6666 0,-0.6667 0,-0.6667 0,-0.3333 0,-0.3333 0,-0.3334 -0.25,0 -0.08333,0 -0.333333,0 -0.333334,0 -0.666666,0 -0.333334,0 -0.166666,0 -0.166667,0 -0.08333,0 -0.25,0 z m 0.666666,8 0.333334,0 0.666666,0 c 0.222227,0 0.416667,0.028 0.583334,0.083 0.166666,0.055 0.27778,0.1666 0.333333,0.3333 0.05553,0.1667 0.08333,0.3611 0.08333,0.5833 l 0,0.6667 c 0,0.2222 -0.0278,0.4167 -0.08333,0.5833 -0.05553,0.1667 -0.166667,0.2778 -0.333333,0.3334 -0.166667,0.055 -0.361107,0.083 -0.583334,0.083 l -0.666666,0 c -0.22222,0 -0.416667,-0.028 -0.583334,-0.083 -0.166666,-0.056 -0.277773,-0.1667 -0.333333,-0.3334 -0.05553,-0.1666 -0.08333,-0.3611 -0.08333,-0.5833 l 0,-0.6667 0,-0.3333 0.08333,-0.25 c 0.05553,-0.1667 0.166667,-0.2778 0.333333,-0.3333 l 0.25,-0.083 z m 8.333334,0 0.666666,0 0.333334,0 0.25,0.083 c 0.166666,0.055 0.27778,0.1666 0.333333,0.3333 l 0.08333,0.25 0,0.3333 0,0.6667 c 0,0.2222 -0.0278,0.4167 -0.08333,0.5833 -0.05553,0.1667 -0.166667,0.2778 -0.333333,0.3334 -0.166667,0.055 -0.361107,0.083 -0.583334,0.083 l -0.666666,0 c -0.22222,0 -0.416667,-0.028 -0.583334,-0.083 -0.166666,-0.056 -0.277773,-0.1667 -0.333333,-0.3334 -0.05553,-0.1666 -0.08333,-0.3611 -0.08333,-0.5833 l 0,-0.6667 c 0,-0.2222 0.0278,-0.4166 0.08333,-0.5833 0.05553,-0.1667 0.166667,-0.2778 0.333333,-0.3333 0.166667,-0.056 0.361114,-0.083 0.583334,-0.083 z"
       id="path13915"
       inkscape:connector-curvature="0" />
    <path
       inkscape:connector-curvature="0"
       style="fill:#95854e;fill-opacity:0.39215687"
       d="m 13.333333,1012.3622 0,0.25 0,0.083 0,0.1667 0,0.5 0,0.6666 0,0.3334 -0.08333,0.25 c -0.05553,0.1666 -0.166667,0.2777 -0.333333,0.3333 l -0.25,0.083 -0.333334,0 -0.666666,0 c -0.22222,0 -0.416667,0.028 -0.583334,0.083 -0.166666,0.055 -0.277773,0.1666 -0.333333,0.3333 -0.05553,0.1667 -0.08333,0.3611 -0.08333,0.5833 l 0,0.6667 0,0.6667 0,0.6666 0,0.6667 0,0.6667 0,0.6666 0,0.6667 0,0.6667 0,0.6666 c 0,0.2223 0.0278,0.4167 0.08333,0.5834 0.05553,0.1666 0.166667,0.2777 0.333333,0.3333 0.166667,0.055 0.361114,0.083 0.583334,0.083 l 0.666666,0 0.666667,0 0.666667,0 0.666666,0 0.666667,0 0.333333,0 0.333334,0 c 0.111113,0 0.194446,0.028 0.25,0.083 l 0.04167,-0.375 c 0.0278,-0.25 0.04167,-0.4861 0.04167,-0.7084 l 0,-0.6666 0,-0.3334 0,-0.3333 0,-0.3333 -0.333333,0 -0.333334,0 -0.333333,0 -0.666667,0 c -0.22222,0 -0.416666,-0.028 -0.583333,-0.083 -0.166667,-0.056 -0.277773,-0.1666 -0.333333,-0.3333 -0.05553,-0.1667 -0.08333,-0.3611 -0.08333,-0.5833 l 0,-0.6667 0,-0.6667 0,-0.6666 0,-0.6667 0,-0.6667 c 0,-0.2222 0.0278,-0.4166 0.08333,-0.5833 0.05553,-0.1667 0.166666,-0.2778 0.333333,-0.3333 0.166667,-0.056 0.361113,-0.083 0.583333,-0.083 l 0.666667,0 c 0.222227,0 0.416667,0.028 0.583333,0.083 0.166667,0.055 0.27778,0.1666 0.333334,0.3333 0.05553,0.1667 0.08333,0.3611 0.08333,0.5833 l 0,0.6667 0,0.6667 0,0.6666 0,0.6667 0,0.6667 0,0.3333 0,0.3333 0,0.3334 0.333333,0 0.333334,0 0.333333,0 0.666667,0 0.666666,0 0.666667,0 0.666667,0 0.666666,0 0.333334,0 0.25,-0.083 c 0.166666,-0.056 0.27778,-0.1666 0.333333,-0.3333 l 0.08333,-0.25 0,-0.3333 0,-0.6667 0,-0.3333 -0.08333,-0.25 c -0.05553,-0.1667 -0.166667,-0.2778 -0.333333,-0.3334 l -0.25,-0.083 -0.333334,0 -0.666666,0 c -0.22222,0 -0.416667,-0.028 -0.583334,-0.083 -0.166666,-0.056 -0.277773,-0.1667 -0.333333,-0.3334 -0.05553,-0.1666 -0.08333,-0.3611 -0.08333,-0.5833 l 0,-0.6667 c 0,-0.2222 0.0278,-0.4166 0.08333,-0.5833 0.05553,-0.1667 0.166667,-0.2778 0.333333,-0.3333 0.166667,-0.056 0.361114,-0.083 0.583334,-0.083 l 0.666666,0 0.333334,0 0.25,-0.083 c 0.166666,-0.056 0.27778,-0.1667 0.333333,-0.3333 l 0.08333,-0.25 0,-0.3334 0,-0.6666 0,-0.3334 0,-0.6666 -0.666666,0 -0.333334,0 -0.666666,0 -0.666667,0 -0.666667,0 -0.666666,0 -0.666667,0 -0.666667,0 -0.666666,0 -0.666667,0 -0.666667,0 -0.666666,0 -0.333334,0 z m 13.333334,0 0,0.6666 0,0.3334 0,0.6666 0,0.6667 0,0.6667 0,0.6666 0,0.6667 0,0.3333 0.08333,0.25 c 0.05553,0.1667 0.166667,0.2778 0.333333,0.3334 l 0.25,0.083 0.333334,0 0.666666,0 0.333334,0 0.333333,0 0.333333,0 0,-0.3333 0,-0.3334 0,-0.3333 0,-0.6667 0,-0.6666 0,-0.6667 0,-0.6667 0,-0.6666 0,-0.3334 0,-0.6666 -0.666666,0 -0.333334,0 -0.666666,0 -0.333334,0 -0.666666,0 z m 2.666666,5.3333 0,0.3333 0,0.3334 0,0.3333 0,0.6667 c 0,0.2222 -0.0278,0.4166 -0.08333,0.5833 -0.05553,0.1667 -0.166667,0.2778 -0.333333,0.3333 -0.166667,0.056 -0.361107,0.083 -0.583334,0.083 l -0.666666,0 -0.333334,0 -0.25,0.083 c -0.166666,0.055 -0.277773,0.1667 -0.333333,0.3333 l -0.08333,0.25 0,0.3334 0,0.6666 0,0.3334 0.08333,0.25 c 0.05553,0.1666 0.166667,0.2777 0.333333,0.3333 l 0.25,0.083 0.333334,0 0.666666,0 0.666667,0 0.666667,0 0.666666,0 0.666667,0 0.666667,0 0.666666,0 0.666667,0 0.666667,0 c 0.222226,0 0.458333,0.014 0.708333,0.042 l 0.375,0.042 c 0.05553,-0.056 0.138894,-0.083 0.25,-0.083 l 0.166667,0 0.5,0 0.666667,0 c 0.222226,0 0.416666,-0.028 0.583333,-0.083 0.166667,-0.056 0.27778,-0.1667 0.333333,-0.3333 0.05553,-0.1667 0.08333,-0.3611 0.08333,-0.5834 l 0,-0.6666 0,-0.3334 0,-0.1666 0,-0.1667 c 0,-0.1111 0.0278,-0.1944 0.08333,-0.25 l -0.375,-0.042 -0.375,-0.042 -0.333333,0 -0.666667,0 -0.666667,0 -0.666667,0 -0.666666,0 -0.666667,0 c -0.22222,0 -0.416667,-0.028 -0.583333,-0.083 -0.166667,-0.056 -0.277774,-0.1666 -0.333334,-0.3333 C 32.0278,1019.7788 32,1019.5844 32,1019.3622 l 0,-0.6667 0,-0.3333 -0.08333,-0.25 c -0.05553,-0.1667 -0.166667,-0.2778 -0.333334,-0.3334 l -0.25,-0.083 -0.333333,0 -0.666667,0 -0.333333,0 -0.333333,0 -0.333334,0 z m -13.416666,7.9167 c -0.05553,0.055 -0.138887,0.083 -0.25,0.083 l -0.666667,0 -0.666667,0 c -0.22222,0 -0.416666,0.028 -0.583333,0.083 -0.166667,0.056 -0.277773,0.1667 -0.333333,0.3334 -0.05553,0.1666 -0.08333,0.3611 -0.08333,0.5833 l 0,0.6667 c 0,0.2222 -0.0278,0.4166 -0.08333,0.5833 -0.05553,0.1667 -0.166667,0.2778 -0.333333,0.3333 -0.166667,0.056 -0.361107,0.083 -0.583334,0.083 l -0.666666,0 c -0.22222,0 -0.416667,0.028 -0.583334,0.083 -0.166666,0.055 -0.277773,0.1667 -0.333333,0.3333 -0.05553,0.1667 -0.08333,0.3611 -0.08333,0.5834 l 0,0.6666 c 0,0.2223 -0.0278,0.4167 -0.08333,0.5834 -0.05553,0.1666 -0.166666,0.2777 -0.333333,0.3333 -0.166667,0.055 -0.3611066,0.083 -0.5833333,0.083 L 9,1031.0288 c -0.22222,0 -0.4166666,0.028 -0.5833333,0.083 -0.1666667,0.055 -0.2777733,0.1666 -0.3333333,0.3333 C 8.0278,1031.6122 8,1031.8066 8,1032.0288 l 0,0.6667 0,0.3333 0,0.1667 0,0.1667 0,0.083 0,0.25 0.3333334,0 0.6666666,0 0.6666667,0 0.6666663,0 0.666667,0 0.666667,0 0.666666,0 c 0.222227,0 0.416667,0.028 0.583334,0.083 0.166666,0.056 0.27778,0.1667 0.333333,0.3334 0.05553,0.1666 0.08333,0.3611 0.08333,0.5833 l 0,0.6667 0,0.3333 0.08333,0.25 c 0.05553,0.1667 0.166666,0.2778 0.333333,0.3333 l 0.25,0.083 0.333333,0 0.666667,0 0.333333,0 0.333334,0 0.333333,0 0,-0.25 0,-0.083 0,-0.3333 0,-0.3333 0,-0.6667 0,-0.3333 0.08333,-0.25 c 0.05553,-0.1667 0.166667,-0.2778 0.333334,-0.3334 l 0.25,-0.083 0.333333,0 0.666667,0 0.333333,0 0.25,-0.083 c 0.166667,-0.056 0.27778,-0.1667 0.333333,-0.3334 l 0.08333,-0.25 0,-0.3333 0,-0.6667 0,-0.6666 0,-0.6667 0,-0.6667 0,-0.6666 0,-0.6667 0,-0.6667 0,-0.6666 0,-0.6667 0,-0.3333 0,-0.3334 0,-0.3333 -0.25,0 -0.08333,0 -0.333333,0 -0.333333,0 -0.666667,0 c -0.22222,0 -0.458333,-0.014 -0.708333,-0.042 l -0.375,-0.042 z m 5.416666,0.083 0,0.6667 0,0.3333 0,0.6667 0,0.3333 0,0.3333 0,0.6667 0,0.6667 0,0.6666 0,0.3334 0.08333,0.25 c 0.05553,0.1666 0.166666,0.2777 0.333333,0.3333 l 0.25,0.083 0.333333,0 0.666667,0 0.666667,0 0.666666,0 0.666667,0 0.666667,0 0.333333,0 0.25,-0.083 c 0.166667,-0.055 0.27778,-0.1667 0.333333,-0.3333 l 0.08333,-0.25 0,-0.3334 0,-0.6666 0,-0.3334 0.08333,-0.25 c 0.05553,-0.1666 0.166667,-0.2777 0.333333,-0.3333 l 0.25,-0.083 0.333334,0 0.666666,0 0.333334,0 0.25,0.083 c 0.166666,0.055 0.27778,0.1667 0.333333,0.3333 l 0.08333,0.25 0,0.3334 0,0.6666 0,0.6667 0,0.6667 0,0.6666 0,0.6667 0,0.3333 0.08333,0.25 c 0.05553,0.1667 0.166666,0.2778 0.333333,0.3334 l 0.25,0.083 0.333333,0 0.666667,0 0.333333,0 0.25,0.083 c 0.166667,0.056 0.27778,0.1667 0.333334,0.3334 l 0.08333,0.25 0,0.3333 0,0.6667 0,0.3333 0,0.1667 0,0.1666 0,0.083 0,0.25 0.333333,0 0.333334,0 0.333333,0 0.666667,0 0.333333,0 0.25,-0.083 c 0.166667,-0.055 0.27778,-0.1666 0.333333,-0.3333 l 0.08333,-0.25 0,-0.3333 0,-0.6667 c 0,-0.2222 0.0278,-0.4167 0.08333,-0.5833 0.05553,-0.1667 0.166667,-0.2778 0.333334,-0.3334 0.166666,-0.055 0.361113,-0.083 0.583333,-0.083 l 0.666667,0 0.666666,0 0.666667,0 0.666667,0 0.666666,0 0.666667,0 0.333333,0 0,-0.25 0,-0.083 0,-0.3334 0,-0.3333 0,-0.6667 c 0,-0.2222 -0.0278,-0.4166 -0.08333,-0.5833 -0.05553,-0.1667 -0.166667,-0.2778 -0.333333,-0.3333 -0.166667,-0.056 -0.361107,-0.083 -0.583334,-0.083 l -0.666666,0 c -0.22222,0 -0.416667,-0.028 -0.583334,-0.083 -0.166666,-0.055 -0.277773,-0.1667 -0.333333,-0.3333 -0.05553,-0.1667 -0.08333,-0.3611 -0.08333,-0.5834 l 0,-0.6666 c 0,-0.2223 -0.0278,-0.4167 -0.08333,-0.5834 -0.05553,-0.1666 -0.166666,-0.2777 -0.333333,-0.3333 -0.166667,-0.055 -0.361107,-0.083 -0.583333,-0.083 l -0.666667,0 -0.666667,0 -0.666667,0 -0.666666,0 -0.666667,0 -0.666667,0 -0.666666,0 -0.666667,0 -0.666667,0 c -0.22222,0 -0.416666,-0.028 -0.583333,-0.083 -0.166667,-0.055 -0.277773,-0.1666 -0.333333,-0.3333 -0.05553,-0.1667 -0.08333,-0.3611 -0.08333,-0.5833 l 0,-0.6667 0,-0.3333 0,-0.1667 0,-0.1667 c 0,-0.1111 0.0278,-0.1944 0.08333,-0.25 l -0.08333,-0.01 0,-0.074 -0.25,0 -0.08333,0 -0.333333,0 -0.333334,0 -0.666666,0 -0.666667,0 -0.666667,0 -0.666666,0 -0.666667,0 -0.666667,0 -0.666666,0 -0.666667,0 -0.666667,0 -0.333333,0 -0.166667,0 -0.166666,0 -0.08333,0 -0.25,0 z M 13.25,1044.2788 c -0.05553,0.056 -0.138887,0.083 -0.25,0.083 l -0.666667,0 -0.666666,0 c -0.22222,0 -0.416667,0.028 -0.583334,0.083 -0.166666,0.055 -0.277773,0.1667 -0.333333,0.3333 -0.05553,0.1667 -0.08333,0.3611 -0.08333,0.5834 l 0,0.6666 c 0,0.2223 -0.0278,0.4167 -0.08333,0.5834 -0.05553,0.1666 -0.166666,0.2777 -0.333333,0.3333 -0.166667,0.055 -0.3611066,0.083 -0.5833333,0.083 L 9,1047.0288 c -0.22222,0 -0.4166666,0.028 -0.5833333,0.083 -0.1666667,0.055 -0.2777733,0.1666 -0.3333333,0.3333 C 8.0278,1047.6122 8,1047.8066 8,1048.0288 l 0,0.6667 0,0.6667 0,0.3333 0.3333334,0 0.3333333,0 0.3333333,0 0.3333334,0 0.3333333,0 0.3333333,0 0.333333,0 0.333334,0 0.333333,0 0.333333,0 0.333334,0 0.333333,0 0.333333,0 0.333334,0 0.333333,0 0.333333,0 0.333334,0 0.333333,0 0.333333,0 0.333334,0 0.333333,0 0.333333,0 0.333334,0 0.333333,0 0.333333,0 0.333334,0 0.333333,0 0.333333,0 0.333334,0 0.333333,0 0.333333,0 0.333334,0 0,-0.3333 0,-0.6667 0,-0.6667 0,-0.6666 0,-0.6667 0,-0.6667 0,-0.6666 0,-0.5 0,-0.1667 c 0,-0.1111 0.0278,-0.1944 0.08333,-0.25 l -0.375,-0.042 c -0.25,-0.028 -0.486107,-0.042 -0.708333,-0.042 l -0.666667,0 -0.666667,0 -0.666666,0 -0.666667,0 -0.666667,0 c -0.22222,0 -0.458333,-0.014 -0.708333,-0.042 l -0.375,-0.042 z m 21.5,0 -0.375,0.042 c -0.25,0.028 -0.486107,0.042 -0.708333,0.042 l -0.666667,0 -0.666667,0 -0.666666,0 -0.666667,0 -0.666667,0 c -0.22222,0 -0.458333,0.014 -0.708333,0.042 l -0.375,0.042 c 0.05553,0.055 0.08333,0.1389 0.08333,0.25 l 0,0.1667 0,0.5 0,0.6666 0,0.6667 0,0.6667 0,0.6666 0,0.6667 0,0.6667 0,0.3333 0.333334,0 0.333333,0 0.333333,0 0.333334,0 0.333333,0 0.333333,0 0.333334,0 0.333333,0 0.333333,0 0.333334,0 0.333333,0 0.333333,0 0.333334,0 0.333333,0 0.333333,0 0.333334,0 0.333333,0 0.333334,0 0.333333,0 0.333333,0 0.333334,0 0.333333,0 0.333333,0 0.333334,0 0.333333,0 0.333333,0 0.333334,0 0.333333,0 0.333333,0 0.333334,0 0.333333,0 0.333333,0 0,-0.3333 0,-0.6667 0,-0.6667 c 0,-0.2222 -0.0278,-0.4166 -0.08333,-0.5833 -0.05553,-0.1667 -0.166667,-0.2778 -0.333333,-0.3333 -0.166667,-0.056 -0.361107,-0.083 -0.583334,-0.083 l -0.666666,0 c -0.22222,0 -0.416667,-0.028 -0.583334,-0.083 -0.166666,-0.055 -0.277773,-0.1667 -0.333333,-0.3333 -0.05553,-0.1667 -0.08333,-0.3611 -0.08333,-0.5834 l 0,-0.6666 c 0,-0.2223 -0.0278,-0.4167 -0.08333,-0.5834 -0.05553,-0.1666 -0.166666,-0.2777 -0.333333,-0.3333 -0.166667,-0.055 -0.361107,-0.083 -0.583333,-0.083 l -0.666667,0 -0.5,0 -0.166667,0 c -0.111106,0 -0.19444,-0.028 -0.25,-0.083 z"
       id="path13927" />
    <path
       style="fill:#ffbc7b;fill-opacity:0.39215687"
       d="m 21.333333,1012.3622 0,0.3333 0,0.3334 0,0.3333 0,0.6667 0,0.3333 -0.08333,0.25 c -0.05553,0.1667 -0.166667,0.2778 -0.333333,0.3333 l -0.25,0.083 -0.333334,0 -0.666666,0 c -0.22222,0 -0.416667,0.028 -0.583334,0.083 -0.166666,0.055 -0.277773,0.1667 -0.333333,0.3333 -0.05553,0.1667 -0.08333,0.3611 -0.08333,0.5834 l 0,0.6666 c 0,0.2223 0.0278,0.4167 0.08333,0.5834 0.05553,0.1666 0.166667,0.2777 0.333333,0.3333 0.166667,0.055 0.361114,0.083 0.583334,0.083 l 0.666666,0 0.333334,0 0.25,0.083 c 0.166666,0.055 0.27778,0.1666 0.333333,0.3333 l 0.08333,0.25 0,0.3333 0,0.6667 0,0.3333 -0.08333,0.25 c -0.05553,0.1667 -0.166667,0.2778 -0.333333,0.3334 l -0.25,0.083 -0.333334,0 -0.666666,0 -0.666667,0 -0.666667,0 -0.666666,0 -0.666667,0 -0.333333,0 -0.333334,0 -0.333333,0 0,0.3333 0,0.3334 0,0.3333 0,0.6667 c 0,0.2222 -0.01387,0.4583 -0.04167,0.7083 l -0.04167,0.375 c 0.05553,0.055 0.08333,0.1389 0.08333,0.25 l 0,0.1667 0,0.5 0,0.6666 0,0.3334 0,0.1666 0,0.1667 c 0,0.1111 -0.0278,0.1944 -0.08333,0.25 l 0.375,0.042 c 0.25,0.028 0.486113,0.042 0.708333,0.042 l 0.666667,0 0.333333,0 0.333333,0 0.666667,0 0.333333,0 0.333334,0 0.666666,0 0.333334,0 0.333333,0 0.666667,0 0.333333,0 0.333333,0 0.666667,0 0.666667,0 0.666666,0 0.666667,0 0.666667,0 0.666666,0 0.666667,0 0.666667,0 0.666666,0 0.333334,0 0.375,0.042 0.375,0.042 c 0.05553,-0.056 0.138893,-0.083 0.25,-0.083 l 0.166666,0 0.5,0 0.666667,0 0.666667,0 0.666666,0 0.666667,0 0.666667,0 c 0.222226,0 0.416666,-0.028 0.583333,-0.083 0.166667,-0.055 0.27778,-0.1667 0.333333,-0.3333 0.05553,-0.1667 0.08333,-0.3611 0.08333,-0.5834 l 0,-0.6666 0,-0.3334 0,-0.1666 0,-0.1667 c 0,-0.1111 0.0278,-0.1944 0.08333,-0.25 l -0.375,-0.042 c -0.25,-0.028 -0.486107,-0.042 -0.708333,-0.042 l -0.666667,0 -0.666667,0 -0.666666,0 -0.666667,0 -0.666667,0 -0.666666,0 -0.666667,0 -0.666667,0 -0.666666,0 -0.333334,0 -0.25,-0.083 c -0.166666,-0.056 -0.277773,-0.1666 -0.333333,-0.3333 l -0.08333,-0.25 0,-0.3333 0,-0.6667 0,-0.3333 0.08333,-0.25 c 0.05553,-0.1667 0.166667,-0.2778 0.333333,-0.3334 l 0.25,-0.083 0.333334,0 0.666666,0 c 0.222227,0 0.416667,-0.028 0.583334,-0.083 0.166666,-0.056 0.27778,-0.1667 0.333333,-0.3334 0.05553,-0.1666 0.08333,-0.3611 0.08333,-0.5833 l 0,-0.6667 0,-0.3333 0,-0.3333 0,-0.3334 -0.333333,0 -0.333333,0 -0.333334,0 -0.666666,0 -0.333334,0 -0.25,-0.083 c -0.166666,-0.056 -0.277773,-0.1667 -0.333333,-0.3333 l -0.08333,-0.25 0,-0.3334 0,-0.6666 0,-0.6667 0,-0.6667 0,-0.6666 0,-0.6667 0,-0.3333 0,-0.3334 0,-0.3333 -0.25,0 -0.08333,0 -0.666666,0 -0.666667,0 -0.666667,0 -0.666666,0 -0.666667,0 -0.666667,0 -0.5,0 -0.166666,0 -0.08333,0 -0.25,0 z m 8,5.3333 0.333334,0 0.333333,0 0.333333,0 0.666667,0 0.333333,0 0.25,0.083 c 0.166667,0.055 0.27778,0.1666 0.333334,0.3333 l 0.08333,0.25 0,0.3333 0,0.6667 c 0,0.2222 0.0278,0.4167 0.08333,0.5833 0.05553,0.1667 0.166667,0.2778 0.333334,0.3334 0.166666,0.055 0.361113,0.083 0.583333,0.083 l 0.666667,0 0.666666,0 0.666667,0 0.666667,0 0.666667,0 0.333333,0 0.375,0.042 0.375,0.042 c 0.05553,-0.056 0.138893,-0.083 0.25,-0.083 l 0.166667,0 0.5,0 0.666666,0 c 0.222227,0 0.416667,-0.028 0.583334,-0.083 0.166666,-0.056 0.27778,-0.1667 0.333333,-0.3334 C 39.9722,1019.7789 40,1019.5844 40,1019.3622 l 0,-0.6667 c 0,-0.2222 -0.0278,-0.4166 -0.08333,-0.5833 -0.05553,-0.1667 -0.166667,-0.2778 -0.333333,-0.3333 -0.166667,-0.056 -0.361107,-0.083 -0.583334,-0.083 l -0.666666,0 c -0.22222,0 -0.416667,-0.028 -0.583334,-0.083 -0.166666,-0.056 -0.277773,-0.1667 -0.333333,-0.3333 -0.05553,-0.1667 -0.08333,-0.3611 -0.08333,-0.5834 l 0,-0.6666 c 0,-0.2223 -0.0278,-0.4167 -0.08333,-0.5834 -0.05553,-0.1666 -0.166666,-0.2777 -0.333333,-0.3333 -0.166667,-0.056 -0.361107,-0.083 -0.583333,-0.083 l -0.666667,0 -0.666667,0 -0.666667,0 -0.666666,0 -0.666667,0 c -0.22222,0 -0.416667,-0.028 -0.583333,-0.083 -0.166667,-0.056 -0.277774,-0.1666 -0.333334,-0.3333 C 32.0278,1014.4455 32,1014.2511 32,1014.0289 l 0,-0.6667 0,-0.3333 0,-0.3334 0,-0.3333 -0.25,0 -0.08333,0 -0.666667,0 -0.666667,0 -0.5,0 -0.166666,0 -0.08333,0 -0.25,0 0,0.3333 0,0.3334 0,0.3333 0,0.6667 0,0.6666 0,0.6667 0,0.6667 0,0.6666 0,0.3334 0,0.3333 0,0.3333 z M 16,1020.3622 l 0,-0.3333 0,-0.3334 0,-0.3333 0,-0.6667 0,-0.6666 0,-0.6667 0,-0.6667 0,-0.6666 c 0,-0.2223 -0.0278,-0.4167 -0.08333,-0.5834 -0.05553,-0.1666 -0.166667,-0.2777 -0.333334,-0.3333 -0.166666,-0.056 -0.361106,-0.083 -0.583333,-0.083 l -0.666667,0 c -0.22222,0 -0.416666,0.028 -0.583333,0.083 -0.166667,0.055 -0.277773,0.1667 -0.333333,0.3333 -0.05553,0.1667 -0.08333,0.3611 -0.08333,0.5834 l 0,0.6666 0,0.6667 0,0.6667 0,0.6666 0,0.6667 c 0,0.2222 0.0278,0.4167 0.08333,0.5833 0.05553,0.1667 0.166666,0.2778 0.333333,0.3334 0.166667,0.055 0.361113,0.083 0.583333,0.083 l 0.666667,0 0.333333,0 0.333334,0 0.333333,0 z m -8,13.3333 0,0.25 0,0.083 0,0.1666 0,0.1667 0,0.3333 0,0.6667 0,0.6667 0,0.6666 0,0.6667 0,0.6667 0,0.6666 0,0.6667 0,0.6667 0,0.6666 c 0,0.2223 0.0278,0.4167 0.083333,0.5834 0.055533,0.1666 0.1666666,0.2777 0.3333333,0.3333 0.1666667,0.055 0.3611133,0.083 0.5833333,0.083 l 0.6666667,0 0.6666663,0 0.666667,0 0.666667,0 0.666666,0 0.333334,0 0.333333,0 0.333333,0 0,-0.25 0,-0.083 0,-0.6667 0,-0.6666 c 0,-0.2223 0.0278,-0.4167 0.08333,-0.5834 0.05553,-0.1666 0.166666,-0.2777 0.333333,-0.3333 0.166667,-0.055 0.361113,-0.083 0.583333,-0.083 l 0.666667,0 c 0.222227,0 0.416667,-0.028 0.583333,-0.083 0.166667,-0.055 0.27778,-0.1666 0.333334,-0.3333 C 15.9722,1038.4455 16,1038.2511 16,1038.0289 l 0,-0.6667 0,-0.5 0,-0.1667 0,-0.083 0,-0.25 -0.333333,0 -0.333334,0 -0.333333,0 -0.666667,0 -0.333333,0 -0.25,-0.083 c -0.166667,-0.056 -0.277773,-0.1667 -0.333333,-0.3334 l -0.08333,-0.25 0,-0.3333 0,-0.6667 c 0,-0.2222 -0.0278,-0.4166 -0.08333,-0.5833 -0.05553,-0.1667 -0.166667,-0.2778 -0.333333,-0.3333 -0.166667,-0.056 -0.361107,-0.083 -0.583334,-0.083 l -0.666666,0 -0.666667,0 -0.666667,0 -0.6666663,0 -0.6666667,0 -0.6666666,0 -0.3333334,0 z m 11.333333,0 -0.25,0.083 c -0.166666,0.055 -0.277773,0.1666 -0.333333,0.3333 l -0.08333,0.25 0,0.3333 0,0.6667 c 0,0.2222 0.0278,0.4167 0.08333,0.5833 0.05553,0.1667 0.166667,0.2778 0.333333,0.3334 0.166667,0.055 0.361114,0.083 0.583334,0.083 l 0.666666,0 c 0.222227,0 0.416667,-0.028 0.583334,-0.083 0.166666,-0.056 0.27778,-0.1667 0.333333,-0.3334 0.05553,-0.1666 0.08333,-0.3611 0.08333,-0.5833 l 0,-0.6667 c 0,-0.2222 -0.0278,-0.4166 -0.08333,-0.5833 -0.05553,-0.1667 -0.166667,-0.2778 -0.333333,-0.3333 -0.166667,-0.056 -0.361107,-0.083 -0.583334,-0.083 l -0.666666,0 -0.333334,0 z m 8.333334,0 c -0.22222,0 -0.416667,0.028 -0.583334,0.083 -0.166666,0.055 -0.277773,0.1666 -0.333333,0.3333 -0.05553,0.1667 -0.08333,0.3611 -0.08333,0.5833 l 0,0.6667 c 0,0.2222 0.0278,0.4167 0.08333,0.5833 0.05553,0.1667 0.166667,0.2778 0.333333,0.3334 0.166667,0.055 0.361114,0.083 0.583334,0.083 l 0.666666,0 c 0.222227,0 0.416667,-0.028 0.583334,-0.083 0.166666,-0.056 0.27778,-0.1667 0.333333,-0.3334 0.05553,-0.1666 0.08333,-0.3611 0.08333,-0.5833 l 0,-0.6667 0,-0.3333 -0.08333,-0.25 c -0.05553,-0.1667 -0.166667,-0.2778 -0.333333,-0.3333 l -0.25,-0.083 -0.333334,0 -0.666666,0 z m 8,0 c -0.22222,0 -0.416667,0.028 -0.583333,0.083 -0.166667,0.055 -0.277774,0.1666 -0.333334,0.3333 -0.05553,0.1667 -0.08333,0.3611 -0.08333,0.5833 l 0,0.6667 0,0.3333 -0.08333,0.25 c -0.05553,0.1667 -0.166666,0.2778 -0.333333,0.3334 l -0.25,0.083 -0.333333,0 -0.666667,0 -0.333333,0 -0.333334,0 -0.333333,0 0,0.25 0,0.083 0,0.1667 0,0.5 0,0.6667 c 0,0.2222 0.0278,0.4166 0.08333,0.5833 0.05553,0.1667 0.166667,0.2778 0.333334,0.3333 0.166666,0.056 0.361113,0.083 0.583333,0.083 l 0.666667,0 c 0.222226,0 0.416666,0.028 0.583333,0.083 0.166667,0.055 0.27778,0.1667 0.333333,0.3333 0.05553,0.1667 0.08333,0.3611 0.08333,0.5834 l 0,0.6666 0,0.6667 0,0.083 0,0.25 0.333333,0 0.333334,0 0.333333,0 0.666667,0 0.666666,0 0.666667,0 0.666667,0 0.666666,0 c 0.222227,0 0.416667,-0.028 0.583334,-0.083 0.166666,-0.055 0.27778,-0.1667 0.333333,-0.3333 C 39.9722,1041.1122 40,1040.9178 40,1040.6955 l 0,-0.6666 0,-0.6667 0,-0.6667 0,-0.6666 0,-0.6667 0,-0.6667 0,-0.6666 0,-0.6667 0,-0.6667 0,-0.3333 0,-0.1667 0,-0.1666 0,-0.083 0,-0.25 -0.333333,0 -0.666667,0 -0.666666,0 -0.666667,0 -0.666667,0 -0.666666,0 -0.666667,0 z"
       id="path13931"
       inkscape:connector-curvature="0" />
    <text
       sodipodi:linespacing="125%"
       id="text4148"
       y="1038.7128"
       x="8.4386225"
       style="font-style:normal;font-variant:normal;font-weight:bold;font-stretch:normal;font-size:23.39080811px;line-height:125%;font-family:Couture;-inkscape-font-specification:'Couture Bold';text-align:start;letter-spacing:-1.16954029px;word-spacing:0px;text-anchor:start;fill:#000000;fill-opacity:0.19607843;stroke:none;stroke-width:1px;stroke-linecap:butt;stroke-linejoin:miter;stroke-opacity:1;"
       xml:space="preserve"><tspan
         y="1038.7128"
         x="8.4386225"
         id="tspan4150"
         sodipodi:role="line">SBI</tspan></text>
    <text
       xml:space="preserve"
       style="font-style:normal;font-variant:normal;font-weight:bold;font-stretch:normal;font-size:23.39080811px;line-height:125%;font-family:Couture;-inkscape-font-specification:'Couture Bold';text-align:start;letter-spacing:-1.16954029px;word-spacing:0px;text-anchor:start;fill:#ffffff;fill-opacity:1;stroke:none;stroke-width:1px;stroke-linecap:butt;stroke-linejoin:miter;stroke-opacity:1;"
       x="6.4386196"
       y="1036.7128"
       id="text4144"
       sodipodi:linespacing="125%"><tspan
         sodipodi:role="line"
         id="tspan4146"
         x="6.4386196"
         y="1036.7128">SBI</tspan></text>
  </g>
</svg>
